# Blender v3.1.2 OBJ File: ''
# www.blender.org
mtllib lanterna.mtl
o Cilindro
v -1.000000 0.000000 -1.000000
v 1.000000 -0.000000 -1.000000
v -1.000000 -0.707107 -0.707107
v 1.000000 -0.707107 -0.707107
v -1.000000 -1.000000 0.000000
v 1.000000 -1.000000 0.000000
v -1.000000 -0.707107 0.707107
v 1.000000 -0.707107 0.707107
v -1.000000 0.000000 1.000000
v 1.000000 0.000000 1.000000
v -1.000000 0.707107 0.707107
v 1.000000 0.707107 0.707107
v -1.000000 1.000000 -0.000000
v 1.000000 1.000000 -0.000000
v -1.000000 0.707107 -0.707107
v 1.000000 0.707107 -0.707107
v 1.000000 -0.707107 -0.707107
v 1.000000 -0.000000 -1.000000
v 1.000000 -1.000000 0.000000
v 1.000000 -0.707107 0.707107
v 1.000000 0.000000 1.000000
v 1.000000 0.707107 0.707107
v 1.000000 1.000000 -0.000000
v 1.000000 0.707107 -0.707107
v 3.130689 -0.707107 -0.707107
v 3.130689 -0.000000 -1.000000
v 3.130689 -1.000000 0.000000
v 3.130689 -0.707107 0.707107
v 3.130689 0.000000 1.000000
v 3.130689 0.707107 0.707107
v 3.130689 1.000000 -0.000000
v 3.130689 0.707107 -0.707107
v 4.425434 -0.707107 -0.707107
v 4.425434 0.000000 -1.000000
v 4.425434 -1.000000 0.000000
v 4.425434 -0.707107 0.707107
v 4.425434 0.000000 1.000000
v 4.425434 0.707107 0.707107
v 4.425434 1.000000 -0.000000
v 4.425434 0.707107 -0.707107
v 4.841265 1.133064 -1.133064
v 4.841265 1.602394 -0.000000
v 4.841265 1.133064 1.133064
v 4.841265 0.000000 1.602394
v 4.841265 -1.133064 1.133064
v 4.841265 -1.602394 0.000000
v 4.841265 -0.000000 -1.602394
v 4.841265 -1.133064 -1.133064
v 4.765659 -1.133064 -1.133064
v 4.765659 -0.000000 -1.602394
v 4.765659 -1.602394 0.000000
v 4.765659 -1.133064 1.133064
v 4.765659 0.000000 1.602394
v 4.765659 1.133064 1.133064
v 4.765659 1.602394 -0.000000
v 4.765659 1.133064 -1.133064
v 4.841265 -1.133064 -1.133064
v 4.841265 -0.000000 -1.602394
v 4.841265 -1.602394 0.000000
v 4.841265 -1.133064 1.133064
v 4.841265 0.000000 1.602394
v 4.841265 1.133064 1.133064
v 4.841265 1.602394 -0.000000
v 4.841265 1.133064 -1.133064
v 4.837692 1.133064 -1.133064
v 4.837692 1.602394 -0.000000
v 4.837692 1.133064 1.133064
v 4.837692 0.000000 1.602394
v 4.837692 -1.133064 1.133064
v 4.837692 -1.602394 0.000000
v 4.837692 -0.000000 -1.602394
v 4.837692 -1.133064 -1.133064
v 4.841265 -1.133064 -1.133064
v 4.841265 -0.000000 -1.602394
v 4.841265 -1.602394 0.000000
v 4.841265 -1.133064 1.133064
v 4.841265 0.000000 1.602394
v 4.841265 1.133064 1.133064
v 4.841265 1.602394 -0.000000
v 4.841265 1.133064 -1.133064
v 4.980440 -0.000000 -1.602394
v 4.980440 1.133064 -1.133064
v 4.980440 1.602394 -0.000000
v 4.980440 1.133064 1.133064
v 4.980440 0.000000 1.602394
v 4.980440 -1.133064 1.133064
v 4.980440 -1.602394 0.000000
v 4.980440 -1.133064 -1.133064
v 5.092370 -0.000000 -1.363181
v 5.092370 0.963915 -0.963914
v 5.092370 1.363181 -0.000000
v 5.092370 0.963914 0.963915
v 5.092370 0.000000 1.363181
v 5.092370 -0.963914 0.963914
v 5.092370 -1.363181 0.000000
v 5.092370 -0.963914 -0.963914
vt 1.000000 0.500000
vt 1.000000 1.000000
vt 0.875000 1.000000
vt 0.875000 0.500000
vt 0.750000 1.000000
vt 0.750000 0.500000
vt 0.625000 1.000000
vt 0.625000 0.500000
vt 0.500000 1.000000
vt 0.500000 0.500000
vt 0.375000 1.000000
vt 0.375000 0.500000
vt 0.250000 1.000000
vt 0.250000 0.500000
vt 0.750000 1.000000
vt 0.625000 1.000000
vt 0.125000 1.000000
vt 0.125000 0.500000
vt 0.000000 1.000000
vt 0.000000 0.500000
vt 0.750000 0.490000
vt 0.919706 0.419706
vt 0.990000 0.250000
vt 0.919706 0.080294
vt 0.750000 0.010000
vt 0.580294 0.080294
vt 0.510000 0.250000
vt 0.580294 0.419706
vt 0.125000 1.000000
vt 0.250000 1.000000
vt 0.250000 1.000000
vt 0.125000 1.000000
vt 0.375000 1.000000
vt 0.500000 1.000000
vt 0.875000 1.000000
vt 0.000000 1.000000
vt 1.000000 1.000000
vt 0.750000 1.000000
vt 0.875000 1.000000
vt 0.875000 1.000000
vt 0.750000 1.000000
vt 0.500000 1.000000
vt 0.375000 1.000000
vt 0.625000 1.000000
vt 1.000000 1.000000
vt 0.000000 1.000000
vt 0.250000 1.000000
vt 0.125000 1.000000
vt 0.500000 1.000000
vt 0.375000 1.000000
vt 0.625000 1.000000
vt 1.000000 1.000000
vt 0.000000 1.000000
vt 1.000000 1.000000
vt 0.875000 1.000000
vt 0.750000 1.000000
vt 0.625000 1.000000
vt 0.500000 1.000000
vt 0.375000 1.000000
vt 0.250000 1.000000
vt 0.125000 1.000000
vt 0.000000 1.000000
vt 0.000000 1.000000
vt 0.125000 1.000000
vt 0.125000 1.000000
vt 0.000000 1.000000
vt 0.500000 1.000000
vt 0.625000 1.000000
vt 0.625000 1.000000
vt 0.500000 1.000000
vt 0.250000 1.000000
vt 0.375000 1.000000
vt 0.375000 1.000000
vt 0.250000 1.000000
vt 0.125000 1.000000
vt 0.000000 1.000000
vt 0.875000 1.000000
vt 1.000000 1.000000
vt 1.000000 1.000000
vt 0.875000 1.000000
vt 0.750000 1.000000
vt 0.750000 1.000000
vt 0.250000 1.000000
vt 0.375000 1.000000
vt 0.500000 1.000000
vt 0.625000 1.000000
vt 0.750000 1.000000
vt 0.875000 1.000000
vt 1.000000 1.000000
vt 0.750000 1.000000
vt 0.875000 1.000000
vt 0.875000 1.000000
vt 0.750000 1.000000
vt 0.419706 0.419706
vt 0.250000 0.490000
vt 0.080294 0.419706
vt 0.010000 0.250000
vt 0.080294 0.080294
vt 0.250000 0.010000
vt 0.419706 0.080294
vt 0.490000 0.250000
vt 0.500000 1.000000
vt 0.625000 1.000000
vt 0.625000 1.000000
vt 0.500000 1.000000
vt 0.250000 1.000000
vt 0.375000 1.000000
vt 0.375000 1.000000
vt 0.250000 1.000000
vt 0.000000 1.000000
vt 0.125000 1.000000
vt 0.125000 1.000000
vt 0.000000 1.000000
vt 1.000000 1.000000
vt 1.000000 1.000000
vt 0.875000 1.000000
vt 0.750000 1.000000
vt 0.625000 1.000000
vt 0.500000 1.000000
vt 0.375000 1.000000
vt 0.250000 1.000000
vt 0.125000 1.000000
vt 0.000000 1.000000
vt 1.000000 1.000000
vn 0.0000 -0.3827 -0.9239
vn -0.0000 -0.9239 -0.3827
vn -0.0000 -0.9239 0.3827
vn -0.0000 -0.3827 0.9239
vn 0.0000 0.3827 0.9239
vn 0.0000 0.9239 0.3827
vn 0.0000 0.0000 1.0000
vn 0.0000 0.9239 -0.3827
vn 0.0000 0.3827 -0.9239
vn -1.0000 0.0000 0.0000
vn -0.8532 -0.1996 -0.4819
vn -0.8532 -0.4819 0.1996
vn -0.8532 0.1996 0.4819
vn -0.8532 0.4819 -0.1996
vn -0.8532 -0.4819 -0.1996
vn -0.8532 -0.1996 0.4819
vn -0.8532 0.4819 0.1996
vn -0.8532 0.1996 -0.4819
vn 0.8921 -0.4174 -0.1729
vn 1.0000 -0.0000 0.0000
vn 0.8921 -0.1729 0.4174
vn 0.8921 0.4174 0.1729
vn 0.8921 0.1729 -0.4174
vn 0.8921 -0.1729 -0.4174
vn 0.8921 -0.4174 0.1729
vn 0.8921 0.1729 0.4174
vn 0.8921 0.4174 -0.1729
usemtl preto.001
s off
f 1/1/1 2/2/1 4/3/1 3/4/1
f 3/4/2 4/3/2 6/5/2 5/6/2
f 5/6/3 6/5/3 8/7/3 7/8/3
f 7/8/4 8/7/4 10/9/4 9/10/4
f 9/10/5 10/9/5 12/11/5 11/12/5
f 11/12/6 12/11/6 14/13/6 13/14/6
f 8/7/7 6/5/7 19/15/7 20/16/7
f 13/14/8 14/13/8 16/17/8 15/18/8
f 15/18/9 16/17/9 2/19/9 1/20/9
f 1/21/10 3/22/10 5/23/10 7/24/10 9/25/10 11/26/10 13/27/10 15/28/10
f 24/29/8 23/30/8 31/31/8 32/32/8
f 14/13/7 12/11/7 22/33/7 23/30/7
f 10/9/7 8/7/7 20/16/7 21/34/7
f 16/17/7 14/13/7 23/30/7 24/29/7
f 6/5/7 4/3/7 17/35/7 19/15/7
f 12/11/7 10/9/7 21/34/7 22/33/7
f 2/19/7 16/17/7 24/29/7 18/36/7
f 4/3/7 2/2/7 18/37/7 17/35/7
f 27/38/2 25/39/2 33/40/2 35/41/2
f 22/33/5 21/34/5 29/42/5 30/43/5
f 20/16/3 19/15/3 27/38/3 28/44/3
f 17/35/1 18/37/1 26/45/1 25/39/1
f 18/36/9 24/29/9 32/32/9 26/46/9
f 23/30/6 22/33/6 30/43/6 31/31/6
f 21/34/4 20/16/4 28/44/4 29/42/4
f 19/15/2 17/35/2 25/39/2 27/38/2
f 32/32/8 31/31/8 39/47/8 40/48/8
f 30/43/5 29/42/5 37/49/5 38/50/5
f 28/44/3 27/38/3 35/41/3 36/51/3
f 25/39/1 26/45/1 34/52/1 33/40/1
f 26/46/9 32/32/9 40/48/9 34/53/9
f 31/31/6 30/43/6 38/50/6 39/47/6
f 29/42/4 28/44/4 36/51/4 37/49/4
f 33/40/11 34/52/11 50/54/11 49/55/11
f 36/51/12 35/41/12 51/56/12 52/57/12
f 38/50/13 37/49/13 53/58/13 54/59/13
f 40/48/14 39/47/14 55/60/14 56/61/14
f 35/41/15 33/40/15 49/55/15 51/56/15
f 37/49/16 36/51/16 52/57/16 53/58/16
f 39/47/17 38/50/17 54/59/17 55/60/17
f 34/53/18 40/48/18 56/61/18 50/62/18
f 58/63/7 64/64/7 80/65/7 74/66/7
f 77/67/9 76/68/9 69/69/9 68/70/9
f 79/71/2 78/72/2 67/73/2 66/74/2
f 74/66/4 80/65/4 65/75/4 71/76/4
f 73/77/5 74/78/5 71/79/5 72/80/5
f 76/68/8 75/81/8 70/82/8 69/69/8
f 78/72/1 77/67/1 68/70/1 67/73/1
f 80/65/3 79/71/3 66/74/3 65/75/3
f 75/81/6 73/77/6 72/80/6 70/82/6
f 63/83/7 62/84/7 78/72/7 79/71/7
f 61/85/7 60/86/7 76/68/7 77/67/7
f 59/87/7 57/88/7 73/77/7 75/81/7
f 64/64/7 63/83/7 79/71/7 80/65/7
f 62/84/7 61/85/7 77/67/7 78/72/7
f 60/86/7 59/87/7 75/81/7 76/68/7
f 57/88/7 58/89/7 74/78/7 73/77/7
usemtl luz
f 87/90/19 88/91/19 96/92/19 95/93/19
f 96/94/20 89/95/20 90/96/20 91/97/20 92/98/20 93/99/20 94/100/20 95/101/20
f 85/102/21 86/103/21 94/104/21 93/105/21
f 83/106/22 84/107/22 92/108/22 91/109/22
f 81/110/23 82/111/23 90/112/23 89/113/23
f 88/91/24 81/114/24 89/115/24 96/92/24
f 86/103/25 87/90/25 95/93/25 94/104/25
f 84/107/26 85/102/26 93/105/26 92/108/26
f 82/111/27 83/106/27 91/109/27 90/112/27
usemtl branco
f 51/56/2 49/55/2 48/116/2 46/117/2
f 53/58/4 52/57/4 45/118/4 44/119/4
f 55/60/6 54/59/6 43/120/6 42/121/6
f 50/62/9 56/61/9 41/122/9 47/123/9
f 49/55/1 50/54/1 47/124/1 48/116/1
f 52/57/3 51/56/3 46/117/3 45/118/3
f 54/59/5 53/58/5 44/119/5 43/120/5
f 56/61/8 55/60/8 42/121/8 41/122/8
f 70/82/2 72/80/2 88/91/2 87/90/2
f 68/70/4 69/69/4 86/103/4 85/102/4
f 66/74/6 67/73/6 84/107/6 83/106/6
f 71/76/9 65/75/9 82/111/9 81/110/9
f 72/80/1 71/79/1 81/114/1 88/91/1
f 69/69/3 70/82/3 87/90/3 86/103/3
f 67/73/5 68/70/5 85/102/5 84/107/5
f 65/75/8 66/74/8 83/106/8 82/111/8
